<svg xmlns="http://www.w3.org/2000/svg" xmlns:xlink="http://www.w3.org/1999/xlink" viewBox="0 0 512 512" width="512" height="512" style="width: 100%; height: 100%; transform: translate3d(0,0,0); content-visibility: visible;" preserveAspectRatio="xMidYMid meet"><defs><clipPath id="__lottie_element_2"><rect width="512" height="512" x="0" y="0"></rect></clipPath></defs><g clip-path="url(#__lottie_element_2)"><g style="display: block;" transform="matrix(1,0,0,1,256,256)" opacity="1"><g opacity="1" transform="matrix(1,0,0,1,0,0)"></g></g><g style="display: block;" transform="matrix(1,0,0,1,256,256)" opacity="1"><g opacity="1" transform="matrix(1,0,0,1,0,0)"><path fill="rgb(53,175,241)" fill-opacity="1" d=" M226,-10 C226,-10 226,10 226,10 C226,129.2104034423828 129.2104034423828,226 10,226 C10,226 -10,226 -10,226 C-129.2104034423828,226 -226,129.2104034423828 -226,10 C-226,10 -226,-10 -226,-10 C-226,-129.2104034423828 -129.2104034423828,-226 -10,-226 C-10,-226 10,-226 10,-226 C129.2104034423828,-226 226,-129.2104034423828 226,-10z"></path></g></g><g style="display: block;" transform="matrix(1,0,0,1,256,270.40899658203125)" opacity="1"><g opacity="1" transform="matrix(1,0,0,1,0,0)"><path fill="rgb(255,255,255)" fill-opacity="1" d=" M84.83799743652344,-73.01799774169922 C84.83799743652344,-73.01799774169922 34.79800033569336,16.54199981689453 34.79800033569336,16.54199981689453 C34.79800033569336,16.54199981689453 14.057999610900879,56.672000885009766 14.057999610900879,56.672000885009766 C14.057999610900879,56.672000885009766 14.057999610900879,-86.08799743652344 14.057999610900879,-86.08799743652344 C14.057999610900879,-86.08799743652344 77.14800262451172,-86.08799743652344 77.14800262451172,-86.08799743652344 C84.05799865722656,-86.08799743652344 88.13800048828125,-78.74800109863281 84.83799743652344,-73.01799774169922z M-14.09000015258789,56.672000885009766 C-14.09000015258789,56.672000885009766 -34.83000183105469,16.531999588012695 -34.83000183105469,16.531999588012695 C-34.83000183105469,16.531999588012695 -84.88999938964844,-72.99800109863281 -84.88999938964844,-72.99800109863281 C-88.19000244140625,-78.72799682617188 -84.11000061035156,-86.06800079345703 -77.19000244140625,-86.06800079345703 C-77.19000244140625,-86.06800079345703 -14.109999656677246,-86.06800079345703 -14.109999656677246,-86.06800079345703 C-14.109999656677246,-86.06800079345703 -14.109999656677246,56.69200134277344 -14.109999656677246,56.69200134277344 C-14.109999656677246,56.69200134277344 -14.09000015258789,56.672000885009766 -14.09000015258789,56.672000885009766z M77.16200256347656,-114.27100372314453 C77.16200256347656,-114.27100372314453 -77.1780014038086,-114.27100372314453 -77.1780014038086,-114.27100372314453 C-105.5479965209961,-114.27100372314453 -123.53800201416016,-83.66100311279297 -109.25800323486328,-58.9109992980957 C-109.25800323486328,-58.9109992980957 -14.008000373840332,106.18900299072266 -14.008000373840332,106.18900299072266 C-7.797999858856201,116.96900177001953 7.7820000648498535,116.96900177001953 14.001999855041504,106.18900299072266 C14.001999855041504,106.18900299072266 109.27200317382812,-58.9109992980957 109.27200317382812,-58.9109992980957 C123.53199768066406,-83.62100219726562 105.54199981689453,-114.27100372314453 77.18199920654297,-114.27100372314453 C77.18199920654297,-114.27100372314453 77.16200256347656,-114.27100372314453 77.16200256347656,-114.27100372314453z"></path></g></g></g></svg>