<?xml version="1.0" encoding="UTF-8"?>
<svg id="_Слой_1" data-name=" Слой 1" xmlns="http://www.w3.org/2000/svg" viewBox="0 0 359.55 364.77">
  <defs>
    <style>
      .cls-1 {
        fill: #fff;
      }
    </style>
  </defs>
  <polygon class="cls-1" points="359.55 160.59 204.68 160.59 204.68 45.58 359.55 45.58 359.55 0 204.68 0 188.78 0 154.87 0 154.87 330.43 204.68 330.43 204.68 206.17 359.55 206.17 359.55 160.59"/>
  <path class="cls-1" d="M189.39,0h-114.96C47.55,0,23.48,13.9,10.04,37.17c-13.38,23.17-13.38,50.84,0,74.03l133.3,231c8.15,14.14,22.76,22.57,39.09,22.57,8.02,0,15.62-2.05,22.26-5.8v-28.55h-6.71v-1.55h-41.55v-54.05L49.01,88.71c-7.57-13.11-2.53-24.67,0-29.03,5.31-9.19,14.81-14.68,25.42-14.68h130.26V0h-15.31Z"/>
</svg>